<!--!
SPDX-FileCopyrightText: Copyright (c) 2026 NVIDIA CORPORATION & AFFILIATES. All rights reserved.
SPDX-License-Identifier: CC-BY-4.0
-->
<svg viewBox="0 0 16 16" xmlns="http://www.w3.org/2000/svg"><title>2B Left Click</title><symbol id="2b-left-click-line" viewBox="0 0 16 16"><path fill="currentColor" d="M3 1h10v9a5 5 0 0 1-10 0Zm9 5.5H4V10a4 4 0 0 0 8 0ZM4 2v3.5h3.5V2Zm4.5 0v3.5H12V2Zm-4 1.75a1.25 1.25 0 1 1 2.5 0 1.25 1.25 0 0 1-2.5 0m1.25-.25a.25.25 0 1 0 0 .5.25.25 0 0 0 0-.5"/></symbol><use href="#2b-left-click-line"/></svg>