<!--!
SPDX-FileCopyrightText: Copyright (c) 2026 NVIDIA CORPORATION & AFFILIATES. All rights reserved.
SPDX-License-Identifier: CC-BY-4.0
-->
<svg viewBox="0 0 16 16" xmlns="http://www.w3.org/2000/svg"><title>CPU</title><symbol id="cpu-line" viewBox="0 0 16 16"><path fill="currentColor" d="M5.5 3V2h1v1h1V2h1v1h1V2h1v1H13v2.5h1v1h-1v1h1v1h-1v1h1v1h-1V13h-2.5v1h-1v-1h-1v1h-1v-1h-1v1h-1v-1H3v-2.5H2v-1h1v-1H2v-1h1v-1H2v-1h1V3ZM4 4v8h8V4Zm2 2h4v4H6Zm1 1v2h2V7Z"/></symbol><use href="#cpu-line"/></svg>