<!--!
SPDX-FileCopyrightText: Copyright (c) 2026 NVIDIA CORPORATION & AFFILIATES. All rights reserved.
SPDX-License-Identifier: CC-BY-4.0
-->
<svg viewBox="0 0 16 16" xmlns="http://www.w3.org/2000/svg"><title>Telephone</title><symbol id="telephone-line" viewBox="0 0 16 16"><path fill="currentColor" d="m11.081 2.136 2.494.669.096.219-.458.201c.458-.2.458-.199.459-.199v.002l.002.004.006.013.016.041q.02.051.05.141c.04.12.089.291.134.506a6.2 6.2 0 0 1 .095 1.786c-.131 1.497-.811 3.481-2.91 5.561-2.097 2.079-4.08 2.757-5.57 2.893a6.1 6.1 0 0 1-1.776-.086 5 5 0 0 1-.643-.178l-.041-.016-.013-.005-.004-.002-.002-.001-.002-.001.199-.459-.199.459-.221-.096-.669-2.495 3.528-2.037 1.759 1.016c.473-.186 1.024-.519 1.612-1.102.545-.541.872-1.051 1.065-1.498L9.044 5.665Zm1.746 1.504-1.264-.339-1.364 2.364.991 1.716-.078.218c-.23.646-.655 1.357-1.385 2.081-.778.771-1.535 1.198-2.212 1.416l-.211.069-1.652-.954-2.363 1.365.338 1.261q.116.034.289.07c.348.07.858.128 1.488.07 1.251-.114 3.019-.686 4.957-2.607 1.937-1.919 2.508-3.685 2.618-4.938a5.2 5.2 0 0 0-.079-1.496 4 4 0 0 0-.073-.296"/></symbol><use href="#telephone-line"/></svg>